# xmcd
#
# Track frame offsets:
#	150
#	51978
#	98322
#	128007
#	163713
#
# Disc length: 2930 seconds
#
# Revision: 1
# Processed by: cddbd v1.5.1PL0 Copyright (c) Steve Scherf et al.
# Submitted via: audiograbber 1.82.01
#
DISCID=340b7005
DTITLE=Johnny Winter  - 2001-02-23 - Northampton, Ma - "The Birthday Show" - Di
DTITLE=sc 1
DYEAR=1900
DGENRE=
TTITLE0=Johnny Winter - Hideaway
TTITLE1=Johnny Winter - Got My Mojo Working
TTITLE2=Johnny Winter - Sick And Tired
TTITLE3=Johnny Winter - She Likes To Boogie
TTITLE4=Johnny Winter - Blackjack Game
EXTD=
EXTT0=
EXTT1=
EXTT2=
EXTT3=
EXTT4=
PLAYORDER=
